<svg width="999" height="371" viewBox="0 0 999 371" fill="none" xmlns="http://www.w3.org/2000/svg">
<g clip-path="url(#clip0_67_633)">
<path d="M317.4 185.6C317.4 289.3 291.2 315.2 186.7 315.2C82.2 315.2 56 289.3 56 185.6C56 81.9 82.1 56 186.6 56C291.1 56 317.3 81.9 317.4 185.6Z" fill="#1C98EB"/>
<path d="M254.7 159.3C259.9 159.3 264 157.8 267.1 154.7C270.2 151.7 271.7 147.3 271.7 141.6C271.7 135.9 270.2 131.5 267.1 128.5C264 125.5 259.9 123.9 254.7 123.9C249.5 123.9 245.4 125.4 242.3 128.5C239.2 131.5 237.7 135.9 237.7 141.6C237.7 147.3 239.2 151.7 242.3 154.7C245.3 157.8 249.5 159.3 254.7 159.3ZM250.2 134.9C251.3 133.5 252.8 132.8 254.7 132.8C256.5 132.8 258 133.5 259.1 134.9C260.2 136.3 260.8 138.5 260.8 141.6C260.8 144.7 260.2 146.9 259.1 148.4C257.9 149.8 256.4 150.5 254.7 150.5C252.8 150.5 251.3 149.8 250.2 148.4C249.1 147 248.5 144.7 248.5 141.6C248.5 138.5 249.1 136.3 250.2 134.9Z" fill="white"/>
<path d="M276.2 166.8H233.2V179.5H276.2V166.8Z" fill="white"/>
<path d="M213.7 124.4H189.6V124.9L190.1 204L141.3 124.6L141.1 124.4H117.1V247.5H141.5V247L141 167.3L191.1 247.2L191.2 247.5H214V201L213.7 124.4Z" fill="white"/>
<path d="M581.3 168.1L580.4 168.7L579.7 167.8C576.5 163.8 569.4 156.7 555.4 156.7C539.9 156.7 527.7 165.7 526.1 167L524.2 168.4V159.7H506.4V259.8H527.1V181.9L527.6 181.5C528.4 180.9 531.4 179.1 535.5 177.4C539.6 175.7 544.9 174.1 550.4 174.1C555.9 174.1 560.2 175.9 562.8 178.7C565.5 181.5 566.7 185.2 567.3 189.6C567.9 193.9 567.9 199 567.9 204.5V259.8H588.4V206.6C588.4 200.2 588.4 195.4 588.2 191.8C588 188.1 587.7 185.6 587 183.7L586.7 182.8L587.5 182.3C589.5 181.1 599.9 174.1 611 174.1C617.1 174.1 621.5 175.9 624.5 179.6C626.9 182.5 628 186.7 628.5 190.9C629 195.1 629 199.6 629 203V259.8H649.7V209.8C649.7 189.5 649.6 176.2 639.1 165.7C634.3 160.9 625.8 156.8 614.5 156.8C598.4 156.8 586.3 164.8 581.3 168.1Z" fill="#163E59"/>
<path d="M698.4 163.4V110.4H677.7V255.1C682.1 256.6 698.6 262.5 716.8 262.5C732.7 262.5 745.7 256.9 754.8 247.3C763.9 237.7 769.1 223.9 769.1 207.4C769.1 190.9 764.4 178.9 756.7 170.2C749 161.5 738.2 156.7 725.8 156.7C711.1 156.7 701.2 163.7 700.2 164.3L698.4 165.4V163.4ZM698.9 181.1C700.1 180.3 709.7 173.5 721.2 173.5C728.6 173.5 735.4 176.5 740.3 182.3C745.2 188.1 748.2 196.6 748.2 207.7C748.2 218.8 745.2 228.7 739.7 235.5C734.2 242.3 726.2 246.1 716.5 246.1C706 246.1 700.6 243.7 699.2 243.3L698.3 243.1V181.5L698.9 181.1Z" fill="#163E59"/>
<path d="M455.3 223.2L455.4 227.6L453.1 223.8L391.7 122.1H370.7V259.8H390.6L389.9 158.5V154.2L392.2 157.9L454.4 259.8H474.6V122.1H454.7L455.3 223.2Z" fill="#163E59"/>
<path d="M898.2 193.7C894.8 191.3 892.5 188.4 892.5 184.2C892.5 180.9 893.9 177.7 896.8 175.3C899.7 172.9 904.1 171.5 910.1 171.5C920.3 171.5 930.1 176.2 933.4 178L940.3 165.3C937.2 163.2 926.5 156.9 908.7 156.9C897.7 156.9 888.5 159.9 882 165C875.6 170.1 871.9 177.5 871.9 186.3C871.9 195.1 875.6 201.3 880.8 205.7C886 210.2 892.6 213 898.3 215.4C905.2 218.3 910.8 220.5 914.7 223C916.7 224.3 918.3 225.6 919.4 227.3C920.5 229 921.1 230.9 921.1 233.1C921.1 237 919.4 240.6 916.1 243C912.8 245.5 908.1 246.9 902 246.9C889.4 246.9 879.1 241.3 875.6 239.3L868.5 252.4C871.9 254.7 885.1 262.5 904.3 262.5C915.4 262.5 924.9 259.6 931.6 254.3C938.2 249 942.2 241.3 942.2 231.6C942.2 221.9 938.2 215.6 932.4 210.9C926.5 206.2 918.9 203.1 911.7 200.2C906.3 198 901.6 196 898.2 193.7Z" fill="#163E59"/>
<path d="M853.7 157.8C852 157.3 849.4 156.8 845.9 156.8C835.9 156.8 828 160.3 822.5 164C819.7 165.9 817.6 167.8 816.1 169.3C814.6 170.8 813.7 171.9 813.6 172.2L811.4 176.1V159.8H793.5V259.9H814.2V190.6L814.4 190.3C816.8 186.9 825.7 174 845 174C846.9 174 849.5 174.3 851.1 174.5L855.8 158.7C855.2 158.3 854.6 158.1 853.7 157.8Z" fill="#163E59"/>
</g>
<defs>
<clipPath id="clip0_67_633">
<rect width="999" height="371" fill="white"/>
</clipPath>
</defs>
</svg>
